<svg id="visual" viewBox="0 0 960 540" width="960" height="540" xmlns="http://www.w3.org/2000/svg" xmlns:xlink="http://www.w3.org/1999/xlink" version="1.1"><rect x="0" y="0" width="960" height="540" fill="#ffffff"></rect><defs><linearGradient id="grad1_0" x1="43.8%" y1="0%" x2="100%" y2="100%"><stop offset="14.444444444444446%" stop-color="#007aff" stop-opacity="1"></stop><stop offset="85.55555555555554%" stop-color="#007aff" stop-opacity="1"></stop></linearGradient></defs><defs><linearGradient id="grad1_1" x1="43.8%" y1="0%" x2="100%" y2="100%"><stop offset="14.444444444444446%" stop-color="#007aff" stop-opacity="1"></stop><stop offset="85.55555555555554%" stop-color="#598bff" stop-opacity="1"></stop></linearGradient></defs><defs><linearGradient id="grad1_2" x1="43.8%" y1="0%" x2="100%" y2="100%"><stop offset="14.444444444444446%" stop-color="#7f9dff" stop-opacity="1"></stop><stop offset="85.55555555555554%" stop-color="#598bff" stop-opacity="1"></stop></linearGradient></defs><defs><linearGradient id="grad1_3" x1="43.8%" y1="0%" x2="100%" y2="100%"><stop offset="14.444444444444446%" stop-color="#7f9dff" stop-opacity="1"></stop><stop offset="85.55555555555554%" stop-color="#9db0ff" stop-opacity="1"></stop></linearGradient></defs><defs><linearGradient id="grad1_4" x1="43.8%" y1="0%" x2="100%" y2="100%"><stop offset="14.444444444444446%" stop-color="#b8c3ff" stop-opacity="1"></stop><stop offset="85.55555555555554%" stop-color="#9db0ff" stop-opacity="1"></stop></linearGradient></defs><defs><linearGradient id="grad1_5" x1="43.8%" y1="0%" x2="100%" y2="100%"><stop offset="14.444444444444446%" stop-color="#b8c3ff" stop-opacity="1"></stop><stop offset="85.55555555555554%" stop-color="#d1d7ff" stop-opacity="1"></stop></linearGradient></defs><defs><linearGradient id="grad1_6" x1="43.8%" y1="0%" x2="100%" y2="100%"><stop offset="14.444444444444446%" stop-color="#e8ebff" stop-opacity="1"></stop><stop offset="85.55555555555554%" stop-color="#d1d7ff" stop-opacity="1"></stop></linearGradient></defs><defs><linearGradient id="grad1_7" x1="43.8%" y1="0%" x2="100%" y2="100%"><stop offset="14.444444444444446%" stop-color="#e8ebff" stop-opacity="1"></stop><stop offset="85.55555555555554%" stop-color="#ffffff" stop-opacity="1"></stop></linearGradient></defs><defs><linearGradient id="grad2_0" x1="0%" y1="0%" x2="56.3%" y2="100%"><stop offset="14.444444444444446%" stop-color="#007aff" stop-opacity="1"></stop><stop offset="85.55555555555554%" stop-color="#007aff" stop-opacity="1"></stop></linearGradient></defs><defs><linearGradient id="grad2_1" x1="0%" y1="0%" x2="56.3%" y2="100%"><stop offset="14.444444444444446%" stop-color="#598bff" stop-opacity="1"></stop><stop offset="85.55555555555554%" stop-color="#007aff" stop-opacity="1"></stop></linearGradient></defs><defs><linearGradient id="grad2_2" x1="0%" y1="0%" x2="56.3%" y2="100%"><stop offset="14.444444444444446%" stop-color="#598bff" stop-opacity="1"></stop><stop offset="85.55555555555554%" stop-color="#7f9dff" stop-opacity="1"></stop></linearGradient></defs><defs><linearGradient id="grad2_3" x1="0%" y1="0%" x2="56.3%" y2="100%"><stop offset="14.444444444444446%" stop-color="#9db0ff" stop-opacity="1"></stop><stop offset="85.55555555555554%" stop-color="#7f9dff" stop-opacity="1"></stop></linearGradient></defs><defs><linearGradient id="grad2_4" x1="0%" y1="0%" x2="56.3%" y2="100%"><stop offset="14.444444444444446%" stop-color="#9db0ff" stop-opacity="1"></stop><stop offset="85.55555555555554%" stop-color="#b8c3ff" stop-opacity="1"></stop></linearGradient></defs><defs><linearGradient id="grad2_5" x1="0%" y1="0%" x2="56.3%" y2="100%"><stop offset="14.444444444444446%" stop-color="#d1d7ff" stop-opacity="1"></stop><stop offset="85.55555555555554%" stop-color="#b8c3ff" stop-opacity="1"></stop></linearGradient></defs><defs><linearGradient id="grad2_6" x1="0%" y1="0%" x2="56.3%" y2="100%"><stop offset="14.444444444444446%" stop-color="#d1d7ff" stop-opacity="1"></stop><stop offset="85.55555555555554%" stop-color="#e8ebff" stop-opacity="1"></stop></linearGradient></defs><defs><linearGradient id="grad2_7" x1="0%" y1="0%" x2="56.3%" y2="100%"><stop offset="14.444444444444446%" stop-color="#ffffff" stop-opacity="1"></stop><stop offset="85.55555555555554%" stop-color="#e8ebff" stop-opacity="1"></stop></linearGradient></defs><g transform="translate(960, 0)"><path d="M0 324C-47 324.3 -94 324.6 -124 299.3C-154 274 -167 223.1 -189.5 189.5C-212 155.9 -243.9 139.7 -267.9 111C-291.9 82.3 -308 41.1 -324 0L0 0Z" fill="#f4f5ff"></path><path d="M0 283.5C-41.1 283.8 -82.2 284.1 -108.5 261.9C-134.7 239.8 -146.1 195.2 -165.8 165.8C-185.5 136.4 -213.4 122.2 -234.4 97.1C-255.4 72 -269.5 36 -283.5 0L0 0Z" fill="#dde0ff"></path><path d="M0 243C-35.2 243.2 -70.5 243.5 -93 224.5C-115.5 205.5 -125.3 167.3 -142.1 142.1C-159 116.9 -182.9 104.8 -200.9 83.2C-218.9 61.7 -231 30.9 -243 0L0 0Z" fill="#c5cdff"></path><path d="M0 202.5C-29.4 202.7 -58.7 202.9 -77.5 187.1C-96.2 171.3 -104.4 139.4 -118.4 118.4C-132.5 97.4 -152.5 87.3 -167.5 69.4C-182.4 51.4 -192.5 25.7 -202.5 0L0 0Z" fill="#abb9ff"></path><path d="M0 162C-23.5 162.2 -47 162.3 -62 149.7C-77 137 -83.5 111.5 -94.8 94.8C-106 78 -122 69.8 -134 55.5C-146 41.1 -154 20.6 -162 0L0 0Z" fill="#8ea6ff"></path><path d="M0 121.5C-17.6 121.6 -35.2 121.7 -46.5 112.3C-57.7 102.8 -62.6 83.7 -71.1 71.1C-79.5 58.5 -91.5 52.4 -100.5 41.6C-109.5 30.9 -115.5 15.4 -121.5 0L0 0Z" fill="#6d94ff"></path><path d="M0 81C-11.7 81.1 -23.5 81.2 -31 74.8C-38.5 68.5 -41.8 55.8 -47.4 47.4C-53 39 -61 34.9 -67 27.7C-73 20.6 -77 10.3 -81 0L0 0Z" fill="#3e83ff"></path><path d="M0 40.5C-5.9 40.5 -11.7 40.6 -15.5 37.4C-19.2 34.3 -20.9 27.9 -23.7 23.7C-26.5 19.5 -30.5 17.5 -33.5 13.9C-36.5 10.3 -38.5 5.1 -40.5 0L0 0Z" fill="#007aff"></path></g><g transform="translate(0, 540)"><path d="M0 -324C47.3 -325.3 94.6 -326.7 124 -299.3C153.3 -272 164.7 -215.9 178.9 -178.9C193.1 -141.9 210 -123.8 234.7 -97.2C259.3 -70.6 291.7 -35.3 324 0L0 0Z" fill="#f4f5ff"></path><path d="M0 -283.5C41.4 -284.7 82.8 -285.9 108.5 -261.9C134.2 -238 144.1 -188.9 156.5 -156.5C168.9 -124.1 183.8 -108.4 205.3 -85.1C226.9 -61.7 255.2 -30.9 283.5 0L0 0Z" fill="#dde0ff"></path><path d="M0 -243C35.5 -244 71 -245 93 -224.5C115 -204 123.5 -161.9 134.2 -134.2C144.8 -106.4 157.5 -92.9 176 -72.9C194.5 -52.9 218.7 -26.5 243 0L0 0Z" fill="#c5cdff"></path><path d="M0 -202.5C29.6 -203.3 59.1 -204.2 77.5 -187.1C95.8 -170 103 -135 111.8 -111.8C120.7 -88.7 131.3 -77.4 146.7 -60.8C162.1 -44.1 182.3 -22 202.5 0L0 0Z" fill="#abb9ff"></path><path d="M0 -162C23.7 -162.7 47.3 -163.3 62 -149.7C76.7 -136 82.4 -108 89.4 -89.4C96.5 -70.9 105 -61.9 117.3 -48.6C129.7 -35.3 145.8 -17.6 162 0L0 0Z" fill="#8ea6ff"></path><path d="M0 -121.5C17.7 -122 35.5 -122.5 46.5 -112.3C57.5 -102 61.8 -81 67.1 -67.1C72.4 -53.2 78.8 -46.4 88 -36.5C97.2 -26.5 109.4 -13.2 121.5 0L0 0Z" fill="#6d94ff"></path><path d="M0 -81C11.8 -81.3 23.7 -81.7 31 -74.8C38.3 -68 41.2 -54 44.7 -44.7C48.3 -35.5 52.5 -31 58.7 -24.3C64.8 -17.6 72.9 -8.8 81 0L0 0Z" fill="#3e83ff"></path><path d="M0 -40.5C5.9 -40.7 11.8 -40.8 15.5 -37.4C19.2 -34 20.6 -27 22.4 -22.4C24.1 -17.7 26.3 -15.5 29.3 -12.2C32.4 -8.8 36.5 -4.4 40.5 0L0 0Z" fill="#007aff"></path></g></svg>